<?xml version="1.0" standalone="no"?>
<!DOCTYPE svg PUBLIC "-//W3C//DTD SVG 20010904//EN"
 "http://www.w3.org/TR/2001/REC-SVG-20010904/DTD/svg10.dtd">
<svg version="1.0" xmlns="http://www.w3.org/2000/svg"
 width="1200.000000pt" height="1072.000000pt" viewBox="0 0 1200.000000 1072.000000"
 preserveAspectRatio="xMidYMid meet">

<g transform="translate(0.000000,1072.000000) scale(0.100000,-0.100000)"
fill="#000000" stroke="none">
<path d="M4577 10710 c-252 -46 -489 -195 -674 -423 -32 -40 -63 -76 -70 -82
-51 -44 -185 -316 -243 -494 -95 -291 -128 -578 -100 -862 64 -629 390 -1088
839 -1181 293 -61 593 50 857 316 323 326 507 815 507 1346 -1 445 -122 809
-360 1086 -110 128 -280 236 -438 278 -72 20 -251 29 -318 16z"/>
<path d="M5893 7849 c-741 -53 -1400 -513 -1738 -1210 -350 -724 -334 -1585
47 -2489 275 -652 728 -1290 1373 -1935 532 -533 1124 -1007 1870 -1499 271
-179 770 -486 789 -486 20 0 -42 63 -167 171 -187 161 -667 642 -843 844 -527
605 -926 1194 -1239 1827 -478 967 -602 1820 -361 2480 234 644 637 1047 1181
1182 188 47 485 60 725 31 337 -39 644 -127 1151 -329 118 -47 231 -89 249
-93 l34 -6 -34 43 c-113 143 -415 448 -585 591 -589 496 -1230 789 -1891 863
-173 20 -412 26 -561 15z"/>
<path d="M3105 7760 c-751 -96 -1667 -925 -2527 -2285 -107 -170 -298 -489
-298 -499 0 -3 12 -6 28 -6 20 0 36 12 65 48 90 110 254 284 354 374 136 121
189 163 305 239 228 150 425 219 627 219 187 0 319 -55 451 -189 47 -47 102
-115 123 -151 183 -316 224 -814 116 -1395 -154 -825 -620 -1830 -1293 -2790
-299 -427 -662 -886 -973 -1231 -120 -133 -96 -124 127 50 1414 1103 2501
2315 3222 3591 133 236 296 570 393 808 l48 118 -27 122 c-85 390 -100 828
-40 1182 51 301 179 656 323 888 l42 68 -40 118 c-129 385 -360 626 -674 701
-97 24 -254 32 -352 20z"/>
<path d="M6150 5604 c-14 -2 -45 -7 -70 -10 -42 -6 -35 -9 97 -35 385 -77 754
-252 1083 -515 139 -111 443 -423 615 -633 322 -392 411 -496 495 -580 89 -90
177 -162 247 -202 l41 -23 95 47 c206 102 438 277 719 544 92 87 240 227 329
311 414 393 663 555 977 639 86 23 117 26 269 27 103 1 176 -3 182 -9 12 -12
-34 -126 -131 -325 -127 -259 -255 -453 -411 -616 -263 -276 -580 -465 -1108
-658 -85 -31 -161 -59 -169 -62 -8 -4 48 -21 125 -39 398 -94 760 -243 859
-354 19 -21 19 -21 -15 -21 -40 -1 -70 -12 -204 -75 -83 -39 -93 -46 -60 -41
86 11 287 27 423 34 l144 7 -113 150 c-183 242 -278 324 -454 390 l-84 31 112
63 c353 199 576 393 800 696 415 562 551 734 653 821 70 60 220 172 322 239
49 33 69 51 60 56 -51 28 -496 119 -686 139 -157 17 -459 8 -577 -18 -346 -75
-639 -263 -1035 -662 -238 -239 -432 -456 -593 -661 -203 -259 -350 -411 -385
-398 -5 2 -43 49 -84 104 -186 250 -426 524 -654 744 -495 481 -983 780 -1419
871 -96 20 -336 35 -395 24z"/>
<path d="M5860 5532 c0 -5 31 -26 69 -46 246 -129 429 -347 786 -936 123 -203
259 -414 314 -487 l32 -42 -28 -6 c-108 -23 -237 -89 -331 -167 -51 -42 -142
-153 -142 -173 0 -5 80 -49 178 -97 195 -95 409 -231 515 -327 297 -269 649
-489 952 -594 270 -93 497 -115 740 -71 75 14 288 74 282 80 -1 1 -47 -4 -102
-13 -125 -19 -384 -12 -495 12 -167 37 -334 103 -495 193 -44 25 -177 109
-295 188 -436 289 -908 536 -1128 591 -23 5 4 38 62 77 136 90 515 204 741
224 l87 7 -187 255 c-284 386 -439 575 -625 760 -265 265 -486 415 -786 533
-109 43 -144 53 -144 39z"/>
</g>
</svg>
