<?xml version="1.0" standalone="no"?>
<!DOCTYPE svg PUBLIC "-//W3C//DTD SVG 20010904//EN"
 "http://www.w3.org/TR/2001/REC-SVG-20010904/DTD/svg10.dtd">
<svg version="1.0" xmlns="http://www.w3.org/2000/svg"
 width="1920.000000pt" height="1080.000000pt" viewBox="0 0 1920.000000 1080.000000"
 preserveAspectRatio="xMidYMid meet">

<g transform="translate(0.000000,1080.000000) scale(0.100000,-0.100000)"
fill="#000000" stroke="none">
<path d="M5736 8054 c-143 -35 -281 -142 -350 -273 -65 -124 -66 -133 -66
-838 0 -348 3 -633 6 -633 3 0 24 15 47 34 169 138 405 238 631 266 95 12 323
9 404 -6 l32 -6 0 121 c0 94 -4 132 -19 171 -36 95 -112 166 -214 201 -51 18
-23 18 1051 19 1210 0 1132 -4 1186 60 l26 32 0 377 c0 376 0 378 -22 411 -13
18 -36 43 -51 54 l-28 21 -1287 2 c-1083 1 -1296 -1 -1346 -13z"/>
<path d="M9035 8058 c-133 -25 -287 -140 -352 -264 -54 -102 -63 -155 -63
-375 0 -187 1 -198 23 -230 49 -74 -40 -69 1232 -69 1087 -1 1138 -2 1093 -18
-107 -39 -205 -147 -227 -252 -7 -34 -11 -304 -11 -819 0 -842 -1 -861 -59
-1021 -70 -192 -193 -309 -374 -357 -85 -23 -279 -22 -367 1 -206 54 -315 161
-384 376 -44 137 -74 186 -129 211 -39 17 -72 19 -534 19 l-491 0 -31 -25
c-44 -38 -55 -82 -47 -194 36 -493 319 -888 802 -1122 577 -279 1399 -279
1969 0 383 187 658 523 770 936 61 228 60 186 60 1710 0 1300 -1 1392 -17
1422 -10 17 -32 42 -50 55 l-33 23 -1365 1 c-822 1 -1385 -2 -1415 -8z"/>
<path d="M12518 8034 c-95 -23 -177 -70 -253 -148 -39 -39 -82 -94 -97 -122
-60 -112 -58 -59 -58 -1345 0 -748 4 -1215 10 -1280 47 -459 239 -838 544
-1073 109 -83 163 -116 286 -175 273 -128 607 -191 1010 -191 1106 0 1742 510
1830 1465 6 67 10 625 10 1440 0 1276 -1 1332 -19 1365 -10 19 -36 45 -57 57
-38 22 -48 23 -324 23 -309 0 -353 -5 -458 -56 -112 -55 -212 -161 -264 -284
l-23 -55 -6 -1210 c-6 -1325 -3 -1264 -66 -1426 -74 -191 -204 -307 -399 -356
-97 -24 -361 -24 -458 0 -225 57 -365 203 -434 455 l-27 97 -5 1370 -5 1370
-22 31 c-44 61 -61 64 -375 63 -205 0 -299 -5 -340 -15z"/>
<path d="M5928 6500 c-119 -25 -178 -45 -282 -97 -205 -102 -341 -223 -581
-517 -176 -216 -171 -214 -337 -93 -62 46 -153 116 -203 155 -248 200 -429
299 -654 360 -87 23 -113 25 -281 25 -125 0 -203 -5 -240 -14 l-55 -14 60 -34
c81 -46 157 -106 237 -188 83 -86 363 -436 352 -440 -5 -2 -32 -17 -61 -33
-54 -31 -102 -84 -148 -162 -26 -47 -26 -48 -6 -48 44 0 149 -44 261 -108 262
-150 541 -275 697 -314 66 -16 118 -21 208 -21 158 1 240 23 420 113 77 38
163 78 190 88 75 29 218 59 334 71 58 6 107 13 109 16 3 2 -25 34 -62 71 -66
64 -192 154 -268 190 -21 10 -38 20 -38 24 0 3 27 20 61 39 156 86 310 231
479 451 235 306 306 382 408 434 19 10 32 19 30 22 -3 2 -57 13 -122 24 -155
26 -383 27 -508 0z"/>
<path d="M6385 6205 c-23 -27 -84 -106 -135 -174 -173 -231 -289 -355 -432
-462 l-48 -36 68 -51 c74 -54 179 -162 255 -259 l47 -62 -52 -5 c-29 -4 -123
-13 -209 -21 -217 -21 -334 -53 -484 -133 l-70 -37 -3 -535 -2 -535 22 -44
c43 -84 28 -82 555 -79 l463 3 37 38 38 37 3 588 c3 644 4 624 -57 709 -33 46
-116 103 -181 126 -41 14 26 15 860 16 1011 1 952 -3 995 71 19 34 20 51 20
410 0 340 -2 378 -18 407 -39 72 16 67 -850 73 l-780 5 -42 -50z"/>
<path d="M4050 3515 c-73 -21 -125 -59 -158 -114 -25 -43 -27 -54 -30 -195 -5
-185 4 -223 69 -288 61 -61 128 -82 244 -76 150 8 237 74 264 199 14 65 14
224 0 289 -24 112 -124 188 -260 196 -49 2 -93 -1 -129 -11z m168 -152 c39
-24 45 -60 43 -245 -1 -59 -5 -72 -28 -98 -33 -36 -93 -49 -133 -28 -45 24
-60 71 -60 193 0 132 15 173 70 192 38 13 73 8 108 -14z"/>
<path d="M5425 3524 c-79 -20 -118 -40 -154 -75 -62 -62 -74 -111 -69 -287 3
-128 6 -152 25 -189 28 -51 81 -96 133 -112 39 -11 39 -12 42 -69 l3 -57 63
-3 c58 -3 65 -1 92 27 20 20 30 39 30 60 0 27 5 32 40 42 83 25 159 119 160
197 l0 32 -85 0 -85 0 -19 -38 c-26 -51 -43 -64 -94 -69 -93 -9 -127 42 -127
192 0 166 24 209 116 207 56 0 89 -21 105 -67 l13 -35 88 0 88 0 0 33 c-1 78
-69 161 -159 192 -47 17 -171 28 -206 19z"/>
<path d="M7607 3520 c-98 -25 -166 -86 -192 -172 -20 -67 -20 -267 -1 -332 33
-108 120 -167 261 -174 140 -7 238 37 288 131 19 36 22 61 25 186 5 182 -4
218 -72 286 -30 30 -68 56 -91 63 -54 17 -171 23 -218 12z m148 -151 c39 -19
49 -50 53 -159 5 -132 -7 -184 -51 -210 -37 -23 -61 -25 -106 -9 -53 19 -66
56 -66 196 0 108 2 125 21 150 35 47 93 59 149 32z"/>
<path d="M14159 3520 c-111 -19 -179 -84 -187 -175 -6 -70 2 -97 38 -138 36
-41 76 -59 204 -92 55 -14 106 -30 113 -37 8 -6 13 -25 11 -42 -3 -26 -9 -33
-43 -44 -58 -19 -122 -7 -154 29 -24 28 -29 29 -110 29 l-84 0 6 -40 c3 -21
15 -52 26 -69 87 -121 373 -134 491 -22 83 79 74 215 -18 276 -21 14 -90 38
-156 55 -65 16 -125 35 -132 41 -21 17 -17 67 5 79 11 5 41 10 66 10 39 0 52
-5 75 -30 27 -29 32 -30 109 -30 80 0 81 0 81 25 0 56 -55 121 -130 153 -54
24 -147 33 -211 22z"/>
<path d="M3319 3491 l-29 -30 2 -303 3 -303 80 0 80 0 3 99 c2 81 0 102 -14
117 -16 18 -12 19 127 21 l144 3 3 58 c4 85 1 87 -139 87 l-119 0 0 55 c0 44
-4 57 -17 63 -10 4 61 9 157 12 l175 5 0 70 0 70 -213 3 -213 2 -30 -29z"/>
<path d="M4604 3509 c-43 -22 -45 -39 -42 -354 l3 -300 85 0 85 0 3 89 c2 67
-1 94 -13 112 l-15 24 59 0 60 0 58 -112 58 -113 88 -3 c76 -2 87 -1 87 14 0
14 -50 114 -108 215 -14 26 -14 28 26 63 54 49 77 109 69 182 -8 78 -41 125
-113 160 -53 26 -65 28 -213 31 -100 2 -164 -1 -177 -8z m287 -140 c48 -25 47
-109 -1 -134 -35 -18 -131 -20 -148 -3 -7 7 -12 34 -12 62 0 32 -6 56 -17 68
-15 17 -13 18 71 18 48 0 96 -5 107 -11z"/>
<path d="M6069 3504 c-22 -26 -239 -638 -230 -647 4 -4 43 -7 86 -5 l78 3 12
35 c7 20 9 42 4 51 -7 14 2 17 66 23 40 4 99 13 131 22 66 17 64 18 90 -61 24
-74 27 -75 115 -75 62 0 79 3 79 15 0 29 -223 630 -238 643 -25 19 -176 16
-193 -4z m140 -273 c17 -52 30 -96 28 -97 -6 -6 -122 -34 -139 -34 -15 0 -12
15 24 120 23 66 45 117 49 112 3 -4 20 -49 38 -101z"/>
<path d="M6809 3490 c-26 -25 -30 -36 -27 -72 l3 -43 179 -5 c154 -4 177 -7
163 -19 -14 -11 -17 -35 -17 -146 0 -73 -5 -147 -11 -165 -26 -74 -136 -72
-172 3 l-17 37 -84 0 c-47 0 -87 -4 -90 -9 -3 -4 1 -32 8 -60 16 -64 60 -111
130 -142 67 -30 198 -33 268 -6 56 22 122 90 138 144 7 25 10 120 8 273 l-3
235 -223 3 -223 2 -30 -30z"/>
<path d="M8045 3510 c-5 -9 177 -605 196 -642 8 -15 25 -18 109 -18 84 0 101
3 108 18 20 38 202 633 197 642 -4 6 -40 10 -80 10 -67 0 -76 -2 -88 -22 -8
-13 -41 -112 -73 -220 -32 -109 -61 -198 -65 -198 -3 0 -32 89 -64 198 -32
108 -64 207 -72 220 -12 20 -21 22 -88 22 -40 0 -76 -4 -80 -10z"/>
<path d="M8788 3504 c-15 -8 -30 -25 -33 -37 -3 -12 -4 -155 -3 -317 l3 -295
245 0 245 0 3 68 3 67 -150 0 c-82 0 -156 3 -165 6 -11 4 -16 19 -16 49 0 27
-6 47 -17 56 -14 12 4 15 128 19 l144 5 0 60 0 60 -114 3 c-64 1 -121 8 -128
14 -7 6 -13 25 -13 42 0 17 -7 42 -16 54 l-15 22 176 0 176 0 -3 68 -3 67
-210 2 c-171 2 -215 0 -237 -13z"/>
<path d="M10405 3511 c-11 -5 -28 -18 -38 -29 -17 -18 -18 -39 -15 -249 l3
-230 30 -49 c24 -37 45 -56 90 -79 54 -27 67 -30 159 -30 116 0 174 20 226 77
52 56 60 105 60 360 l0 228 -26 6 c-46 12 -107 -3 -131 -31 -22 -25 -23 -33
-23 -230 l0 -203 -26 -31 c-22 -27 -32 -31 -74 -31 -106 0 -110 10 -110 288 0
156 -3 221 -12 230 -13 13 -82 15 -113 3z"/>
<path d="M11074 3495 l-24 -24 2 -308 3 -308 71 -3 c51 -2 74 1 82 11 7 8 13
73 14 174 l3 161 111 -172 111 -171 74 0 74 0 0 330 0 330 -51 3 c-43 2 -57
-1 -80 -22 l-29 -24 -5 -157 -5 -157 -109 171 c-59 94 -116 176 -126 181 -35
19 -89 12 -116 -15z"/>
<path d="M11763 3496 l-28 -24 0 -309 0 -308 84 -3 c61 -2 87 1 92 10 14 22
11 632 -3 646 -7 7 -36 12 -64 12 -41 0 -59 -5 -81 -24z"/>
<path d="M12010 3502 c0 -26 188 -623 201 -639 16 -18 192 -18 207 0 14 17
202 611 202 638 0 18 -6 20 -82 17 l-83 -3 -32 -100 c-17 -55 -48 -154 -69
-219 -23 -77 -39 -115 -44 -105 -4 8 -33 99 -65 204 -31 104 -61 197 -66 207
-8 15 -23 18 -89 18 -71 0 -80 -2 -80 -18z"/>
<path d="M12739 3491 l-29 -30 2 -303 3 -303 247 -3 248 -2 5 23 c4 13 5 43 3
68 l-3 44 -155 3 c-172 3 -180 6 -180 68 0 18 -7 40 -16 48 -14 15 -2 16 129
16 159 0 157 -1 157 65 0 65 0 65 -131 65 -131 0 -139 4 -139 69 0 16 -4 33
-10 36 -30 19 6 25 163 27 l172 3 0 65 0 65 -218 3 -218 2 -30 -29z"/>
<path d="M13375 3511 c-49 -21 -50 -26 -53 -330 -2 -157 -1 -296 3 -308 5 -23
9 -24 88 -21 l82 3 3 99 c2 66 -1 103 -9 113 -11 12 -4 14 47 11 l59 -3 50
-96 c69 -134 63 -129 157 -129 55 0 80 4 84 13 2 7 -23 62 -56 122 -33 61 -60
113 -60 117 0 4 20 27 44 51 55 55 72 118 55 200 -13 62 -71 124 -134 146 -47
15 -330 25 -360 12z m289 -152 c20 -16 26 -29 26 -58 0 -59 -26 -76 -114 -76
l-71 0 -5 61 c-3 34 -11 68 -19 77 -12 16 -6 17 71 17 71 0 90 -3 112 -21z"/>
<path d="M14806 3507 c-18 -13 -236 -602 -236 -637 0 -18 7 -20 81 -20 l80 0
15 35 c11 26 12 41 4 55 -10 18 -7 20 27 20 37 1 165 22 209 35 18 6 24 -2 50
-67 l29 -73 83 -3 c68 -2 82 0 82 13 0 30 -222 630 -238 643 -21 16 -163 16
-186 -1z m133 -276 c18 -51 30 -95 28 -98 -8 -7 -111 -33 -134 -33 -21 0 -21
3 20 119 23 66 45 117 48 113 3 -4 20 -49 38 -101z"/>
<path d="M15340 3491 l-30 -30 2 -303 3 -303 240 0 240 0 0 70 0 70 -147 3
c-82 1 -149 4 -150 5 -1 1 -5 117 -8 257 l-5 255 -58 3 c-52 3 -60 0 -87 -27z"/>
<path d="M9385 3486 l-25 -25 2 -303 3 -303 80 0 80 0 5 175 5 175 42 -75 c65
-117 68 -120 118 -120 l44 0 53 98 53 97 5 -175 5 -175 80 0 80 0 3 328 2 327
-78 0 -79 0 -82 -150 c-46 -82 -86 -150 -90 -150 -3 0 -43 66 -87 148 l-82
147 -56 3 c-49 3 -59 0 -81 -22z"/>
</g>
</svg>
