<?xml version="1.0" standalone="no"?>
<!DOCTYPE svg PUBLIC "-//W3C//DTD SVG 20010904//EN"
 "http://www.w3.org/TR/2001/REC-SVG-20010904/DTD/svg10.dtd">
<svg version="1.0" xmlns="http://www.w3.org/2000/svg"
 width="600.000000pt" height="600.000000pt" viewBox="0 0 600.000000 600.000000"
 preserveAspectRatio="xMidYMid meet">

<g transform="translate(0.000000,600.000000) scale(0.100000,-0.100000)"
fill="#000000" stroke="none">
<path d="M2895 5692 c-121 -110 -343 -245 -540 -328 -272 -114 -538 -165 -850
-165 -234 0 -445 30 -663 93 -40 12 -74 19 -77 16 -6 -5 -67 -505 -94 -768
-61 -585 -81 -902 -88 -1360 -7 -523 10 -754 65 -850 44 -78 161 -250 260
-383 86 -116 98 -128 121 -124 14 3 86 15 158 28 l133 22 0 334 0 333 183 0
183 0 53 -77 54 -78 5 -223 5 -222 31 5 c52 8 282 29 451 41 131 9 1038 14
1180 6 155 -8 173 -7 203 9 31 18 32 18 32 0 0 -17 11 -20 78 -26 42 -4 137
-13 210 -21 74 -8 142 -14 153 -14 18 0 19 11 19 246 l0 246 32 54 33 53 205
1 205 0 4 -315 c3 -293 2 -317 -14 -335 -15 -17 -26 -19 -67 -14 l-49 7 3 -34
c2 -25 9 -35 28 -41 19 -6 17 -7 -10 -3 -734 93 -1179 121 -1740 112 -481 -8
-767 -33 -1475 -128 -203 -27 -384 -49 -400 -49 -17 0 -41 7 -54 16 -23 16
-23 16 -16 -7 9 -32 33 -49 66 -49 15 0 189 22 386 49 858 119 952 126 1688
126 651 0 705 -3 1190 -65 299 -38 420 -57 373 -59 l-37 -1 -3 -126 c-3 -124
-4 -127 -30 -147 l-26 -20 -38 32 c-21 17 -45 31 -54 31 -8 0 -52 -23 -98 -50
-46 -28 -84 -50 -86 -50 -1 0 -38 27 -82 60 -43 33 -88 63 -100 66 -13 3 -35
-4 -59 -20 -20 -14 -70 -38 -111 -53 -84 -31 -78 -19 -89 -198 -3 -55 -8 -112
-11 -128 -5 -25 -7 -26 -27 -12 -27 19 -57 19 -83 1 -12 -9 -26 -11 -34 -6
-11 7 -12 28 -4 119 6 61 13 113 16 116 3 3 16 1 29 -4 33 -12 69 8 102 56 33
47 33 62 6 92 -23 24 -134 81 -158 81 -7 0 -28 -13 -46 -29 -34 -29 -130 -71
-165 -71 -10 0 -61 27 -112 60 -96 62 -126 71 -149 44 -18 -22 -148 -86 -159
-79 -6 4 -10 24 -10 45 0 37 -2 40 -34 45 -22 5 -46 1 -68 -9 -33 -16 -37 -16
-82 4 -58 25 -53 25 -121 -1 -67 -25 -157 -104 -178 -157 -11 -28 -13 -50 -6
-85 14 -76 34 -105 94 -134 52 -26 63 -43 26 -43 -10 0 -40 -11 -67 -25 -27
-14 -52 -25 -56 -25 -5 0 -8 20 -8 45 0 86 -36 127 -153 171 l-72 28 54 12
c29 6 75 22 102 35 48 22 49 23 49 68 0 82 -6 91 -57 91 -36 0 -46 -4 -50 -20
-7 -25 -10 -25 -68 0 -60 26 -85 25 -143 -4 -88 -45 -162 -134 -162 -195 0
-95 40 -153 130 -186 65 -23 65 -28 0 -39 -19 -4 -52 -18 -73 -32 -37 -24 -40
-25 -58 -8 -17 15 -24 16 -53 6 -18 -7 -49 -12 -70 -12 -38 0 -38 0 -32 33 3
17 -1 91 -9 162 -27 241 -19 300 51 378 24 27 44 53 44 57 0 5 -12 18 -26 29
-23 18 -29 19 -57 7 -18 -7 -36 -11 -42 -10 -5 2 -36 -4 -67 -14 -47 -15 -70
-16 -130 -9 -103 13 -170 -7 -232 -69 -59 -58 -75 -109 -55 -167 17 -49 52
-68 94 -49 18 8 25 19 25 39 0 50 9 54 98 47 57 -5 82 -11 82 -20 0 -7 -5 -16
-10 -19 -15 -9 -12 -132 6 -280 15 -119 14 -200 -1 -295 -9 -56 5 -67 57 -47
24 9 68 17 98 17 77 0 125 16 169 55 37 34 38 34 57 15 21 -21 35 -24 103 -22
l43 2 -16 25 c-16 24 -16 25 7 25 13 0 50 -9 82 -20 32 -11 72 -20 90 -20 31
0 108 42 134 74 13 15 16 14 40 -13 28 -33 33 -34 104 -32 44 1 47 3 37 20
-14 28 -1 32 45 14 115 -42 131 -45 172 -28 21 9 55 27 75 41 34 24 40 25 75
14 21 -7 51 -22 66 -32 47 -33 101 -35 147 -4 49 32 60 32 90 1 30 -32 53 -32
94 0 18 14 39 25 47 25 8 0 50 -16 94 -35 44 -19 87 -35 95 -35 8 0 39 16 68
36 48 32 56 34 85 25 18 -6 52 -27 76 -46 62 -49 84 -53 146 -22 l52 26 34
-35 c18 -19 39 -34 46 -34 7 0 38 14 68 31 54 30 56 31 83 14 15 -9 41 -33 58
-52 39 -44 60 -45 158 -4 41 17 77 31 80 31 3 0 6 -40 6 -90 0 -62 4 -90 12
-90 6 0 9 -2 6 -5 -3 -4 -102 8 -219 24 -1004 142 -1872 131 -2903 -35 -216
-35 -219 -35 -255 -17 l-37 19 4 -23 c6 -30 35 -45 83 -45 20 0 147 19 281 41
487 81 795 108 1328 117 617 11 1063 -21 1636 -117 70 -11 70 -12 66 -40 -4
-27 -6 -29 -46 -24 -22 2 2 -5 54 -16 115 -25 190 -28 224 -10 26 14 56 74 56
114 0 12 20 99 43 192 l43 170 393 3 c307 2 392 5 388 15 -4 13 -563 32 -694
22 -59 -4 -73 -2 -73 10 0 46 124 497 164 596 25 64 46 123 46 131 0 20 -36
52 -49 44 -6 -4 -25 -27 -43 -52 -29 -41 -36 -45 -62 -40 -16 4 -31 8 -33 10
-3 2 40 64 95 138 91 122 231 329 261 387 57 106 76 715 41 1286 -31 498 -147
1641 -170 1668 -3 4 -49 -4 -101 -18 -231 -62 -412 -86 -646 -86 -181 0 -271
9 -443 42 -321 64 -689 239 -935 446 l-71 60 -59 -55z m135 -335 c25 -22 90
-69 145 -106 l100 -66 -317 0 c-174 0 -316 1 -315 1 1 1 49 33 107 72 58 39
128 91 155 115 55 50 47 51 125 -16z m632 -224 c-23 -5 -23 -5 -20 -148 l3
-143 -90 -6 c-49 -4 -415 -6 -812 -4 -510 1 -726 -1 -734 -9 -7 -7 -2 -17 20
-32 26 -19 31 -29 31 -65 l0 -43 -107 -5 c-60 -3 -109 -4 -111 -3 -1 1 12 19
29 41 l31 39 -164 3 -163 3 74 68 74 68 -66 53 c-37 30 -65 55 -63 58 12 11
161 22 229 16 l77 -7 0 -33 0 -34 55 0 55 0 0 88 c0 49 3 92 7 95 3 4 380 6
837 6 457 -1 821 -4 808 -6z m-2492 -134 c63 -16 173 -37 245 -45 212 -25 195
-21 195 -56 0 -33 -19 -108 -31 -122 -14 -17 2 -33 28 -28 16 3 24 1 20 -6 -9
-13 10 -20 75 -28 61 -8 77 -15 137 -61 l44 -33 121 6 c152 8 186 22 221 86
15 26 35 52 45 58 30 16 1362 14 1382 -2 8 -7 27 -34 42 -60 15 -27 33 -48 41
-48 7 0 15 -6 18 -12 3 -10 40 -13 143 -13 l139 0 52 33 c31 20 74 36 108 42
77 13 96 20 89 32 -5 7 4 9 24 6 17 -2 29 -1 26 4 -3 4 -76 8 -162 8 l-157 0
3 129 3 129 26 7 c31 7 252 -4 271 -14 9 -5 1 -16 -26 -34 -55 -39 -98 -86
-86 -95 111 -95 135 -113 127 -97 -17 31 -34 98 -31 122 2 25 12 28 138 38 93
8 259 39 367 69 l83 23 5 -31 c15 -90 85 -691 85 -731 l0 -25 -335 0 -336 1
26 30 c14 17 25 40 25 51 0 17 -5 20 -34 16 -19 -2 -33 0 -30 4 7 11 -28 48
-39 41 -5 -3 -4 3 2 14 16 32 -4 44 -48 29 -20 -7 -42 -11 -50 -8 -8 3 -11 0
-7 -7 5 -7 1 -9 -9 -5 -15 6 -135 -64 -135 -79 0 -5 -30 19 -67 53 -193 175
-462 307 -728 356 -135 26 -393 25 -520 0 -203 -40 -391 -117 -559 -230 -53
-35 -96 -61 -96 -57 0 13 -131 116 -156 123 -22 6 -24 5 -12 -9 12 -15 11 -15
-9 -5 -37 20 -50 14 -57 -25 -7 -46 -45 -93 -76 -93 -22 0 -24 -14 -10 -65 1
-5 2 -26 1 -46 -1 -28 -6 -38 -22 -42 -16 -4 -20 -11 -16 -26 5 -20 2 -21
-374 -23 -208 -2 -379 -1 -379 2 0 11 60 526 76 653 15 118 20 137 33 131 9
-3 68 -19 131 -35z m2775 -183 l0 -133 -110 -6 c-60 -3 -111 -4 -113 -2 -2 2
40 32 92 66 l95 64 1 73 c0 62 2 72 18 72 15 0 17 -13 17 -134z m-2060 -277
c59 -44 306 -280 355 -339 l43 -51 -68 43 c-38 24 -120 95 -184 158 -127 126
-125 114 3 -17 69 -71 77 -83 58 -84 -12 -1 -27 -2 -32 -3 -14 -1 -154 156
-196 219 -39 59 -53 105 -33 105 8 0 32 -14 54 -31z m1287 -34 c83 -14 236
-61 274 -83 16 -10 15 -11 -11 -6 -32 5 -39 1 -245 -141 -94 -65 -235 -162
-348 -238 -40 -27 -75 -47 -78 -44 -4 3 -17 2 -31 -4 -17 -6 -22 -6 -17 2 4 7
1 10 -7 7 -20 -7 -132 36 -212 82 -70 41 -207 147 -229 179 -7 10 -20 20 -27
23 -33 10 179 128 314 175 175 61 430 81 617 48z m-1313 -128 c95 -59 195
-146 217 -190 14 -27 8 -24 -73 32 -48 34 -109 78 -135 97 -27 20 -48 34 -48
31 0 -3 62 -51 138 -108 152 -113 166 -125 138 -115 -10 3 -24 2 -31 -4 -15
-13 -182 110 -264 194 -30 30 -57 53 -61 51 -3 -2 -6 4 -7 13 -1 9 -4 28 -9
41 -7 22 -5 23 22 17 16 -4 67 -31 113 -59z m2391 43 c0 -22 -99 -116 -212
-201 -137 -103 -158 -116 -158 -96 0 8 57 56 127 108 209 155 207 160 -5 13
-73 -51 -149 -98 -170 -105 -20 -6 -59 -23 -86 -36 -26 -13 -45 -20 -42 -14
10 15 403 275 470 310 63 33 76 37 76 21z m-735 -30 c3 -6 -1 -7 -9 -4 -18 7
-21 14 -7 14 6 0 13 -4 16 -10z m835 -62 c0 -36 -167 -154 -376 -265 -182 -96
-159 -60 37 58 101 60 189 115 194 121 6 6 -10 -1 -35 -16 -102 -60 -300 -168
-314 -170 -7 -1 -25 -15 -39 -32 -14 -16 -38 -36 -54 -44 -15 -8 -32 -20 -38
-27 -5 -6 -41 -28 -80 -49 -70 -37 -70 -37 -40 -7 17 16 39 40 50 54 12 13 32
32 45 42 l25 19 -27 -16 c-19 -11 -29 -12 -34 -5 -4 7 -21 9 -43 6 l-36 -6 40
25 c57 37 216 114 233 114 14 0 13 -13 -3 -54 -5 -10 47 21 119 73 164 119
376 220 376 179z m-2528 -91 c106 -54 238 -142 238 -158 0 -5 -10 -3 -22 4
-50 30 -202 107 -183 92 11 -9 68 -43 128 -77 59 -33 107 -65 107 -70 0 -27
-42 -12 -166 59 -135 76 -234 156 -234 187 0 26 24 19 132 -37z m337 -28 c89
-50 280 -191 202 -149 -11 5 -30 10 -42 10 -13 0 -50 19 -83 42 -33 23 -57 37
-53 31 4 -5 32 -28 63 -49 30 -21 62 -52 70 -69 7 -16 20 -39 29 -50 13 -19
13 -21 -4 -21 -11 0 -18 3 -15 7 2 4 -19 21 -46 39 -28 18 -50 36 -50 41 0 5
-6 9 -14 9 -18 0 -114 102 -126 135 -24 64 -10 68 69 24z m-436 -25 c-3 -9 0
-20 8 -25 11 -6 8 -9 -8 -9 -16 0 -23 -6 -23 -19 0 -11 4 -22 9 -25 5 -3 -19
-61 -54 -128 -100 -195 -144 -346 -166 -570 -23 -242 31 -541 136 -748 14 -27
25 -52 25 -55 0 -3 -173 -5 -384 -5 l-384 0 -6 28 c-13 57 -18 603 -7 817 11
224 49 720 56 743 3 9 93 12 404 12 363 0 400 -1 394 -16z m3271 -36 c48 -411
75 -1150 52 -1440 l-8 -108 -389 0 -389 0 29 58 c149 296 182 704 85 1040 -14
48 -43 129 -64 179 -21 51 -35 93 -32 93 15 0 73 60 67 70 -3 5 -21 10 -38 10
-19 0 -27 3 -20 8 7 4 14 17 16 28 1 12 15 36 30 54 16 18 26 39 23 46 -4 12
49 14 313 14 l319 0 6 -52z m-650 34 c11 -19 -100 -104 -204 -157 -86 -44
-283 -124 -292 -119 -18 11 -6 26 35 43 101 43 293 134 302 143 6 5 -17 -3
-50 -18 -33 -14 -106 -46 -163 -70 -177 -74 -89 -3 142 115 44 23 185 69 213
70 6 1 14 -3 17 -7z m-2529 -67 c70 -26 239 -114 232 -121 -2 -2 -37 9 -77 26
-40 17 -75 29 -77 27 -3 -4 66 -37 148 -70 20 -8 46 -29 58 -46 22 -30 21 -30
-124 34 -156 69 -258 129 -263 158 -5 24 24 22 103 -8z m292 -7 c15 -7 51 -31
78 -53 28 -22 64 -51 80 -63 26 -21 23 -20 -20 4 -27 15 -60 34 -72 42 -13 8
-23 12 -23 9 0 -12 139 -89 149 -83 6 4 8 -4 5 -20 -3 -14 0 -32 7 -40 17 -21
1 -17 -50 12 -115 67 -191 141 -191 186 0 21 1 22 37 6z m253 -63 c31 -17 44
-19 34 -3 -4 7 -3 8 5 4 6 -4 9 -11 6 -15 -2 -5 13 -21 36 -36 22 -16 44 -35
49 -44 8 -14 9 -14 10 3 0 24 11 19 117 -52 107 -72 185 -140 177 -154 -4 -5
-13 -3 -22 5 -20 18 -122 78 -122 73 0 -3 29 -25 65 -51 72 -51 89 -74 77
-105 -8 -20 -8 -20 -70 10 -63 32 -168 119 -143 120 8 0 -2 16 -23 40 -19 22
-38 51 -42 65 -3 14 -11 25 -16 25 -5 0 -24 9 -41 21 -27 17 -25 14 9 -18 40
-37 81 -93 68 -93 -13 0 -74 42 -74 51 0 5 -5 9 -11 9 -21 0 -68 41 -98 87
-45 67 -42 87 9 58z m1970 -14 c0 -15 -65 -59 -147 -100 -82 -41 -313 -128
-367 -138 l-31 -6 26 21 c14 12 92 47 173 78 80 31 145 59 143 61 -3 2 -17 -1
-33 -8 -16 -6 -78 -28 -137 -50 -147 -53 -130 -24 29 48 161 73 344 123 344
94z m-2186 -52 c14 -11 24 -24 21 -29 -3 -5 0 -12 6 -16 8 -5 9 -3 4 6 -10 16
-6 14 85 -36 41 -23 86 -45 100 -49 l25 -6 -25 20 c-13 11 -29 17 -34 14 -5
-3 -6 -1 -2 5 3 6 2 13 -4 17 -5 3 -10 11 -10 17 0 19 77 1 117 -28 56 -41 62
-48 25 -29 -19 9 -36 14 -38 12 -3 -3 28 -18 68 -35 53 -22 73 -36 73 -49 0
-12 -8 -19 -25 -20 l-25 -2 25 8 c22 8 23 9 4 10 -11 1 -24 4 -28 8 -3 4 -13
8 -22 9 -8 1 -31 11 -52 22 -41 21 -113 22 -137 2 -11 -9 -25 -6 -67 17 -60
32 -148 114 -148 138 0 21 33 19 64 -6z m1726 12 c0 -38 -96 -120 -190 -163
-88 -39 -91 -38 -39 12 28 28 47 50 42 50 -12 0 -51 -29 -39 -30 5 0 1 -9 -9
-20 -30 -33 -163 -83 -227 -84 -34 -1 -57 -5 -55 -11 2 -5 -3 -15 -11 -21 -10
-7 5 -9 55 -6 96 5 109 9 33 12 l-65 2 70 13 c85 16 192 19 200 5 11 -17 -76
-48 -150 -55 -39 -3 -92 -2 -119 3 -44 9 -54 7 -118 -25 -79 -39 -100 -35 -74
16 11 21 38 42 84 65 37 19 63 35 59 36 -4 0 -24 -8 -45 -19 -58 -29 -82 -35
-82 -19 0 12 241 138 263 138 12 0 -29 -73 -58 -103 -15 -15 -23 -27 -17 -27
6 0 13 4 16 9 3 5 22 12 41 15 21 4 33 11 29 18 -4 6 2 8 17 4 13 -3 18 -3 11
0 -18 8 61 54 92 54 11 0 59 25 106 56 47 30 96 62 110 69 28 16 70 20 70 6z
m-1968 -25 c128 -34 189 -61 182 -81 -8 -19 -9 -19 -85 5 -35 10 -65 18 -67
16 -2 -2 34 -16 80 -31 80 -27 131 -55 98 -55 -34 0 -183 41 -223 61 -73 37
-135 109 -93 109 8 0 56 -11 108 -24z m1753 14 c11 -18 -83 -106 -150 -140
-36 -18 -68 -31 -70 -28 -6 6 41 57 70 76 18 11 18 11 -3 2 -17 -8 -26 -8 -37
4 -11 11 -11 15 -2 19 6 3 48 22 92 41 88 40 91 40 100 26z m-1460 -129 c35
-21 62 -41 59 -44 -3 -3 17 -14 44 -23 46 -17 49 -19 32 -31 -16 -12 -28 -10
-81 12 -61 24 -122 64 -146 93 -37 46 11 42 92 -7z m1655 30 c0 -17 -41 -60
-87 -89 -47 -30 -135 -71 -121 -56 4 4 3 13 -3 20 -9 10 -2 17 30 30 23 9 40
18 38 20 -2 3 -19 -2 -38 -10 -77 -31 -79 -24 -4 13 44 21 94 48 110 59 31 21
75 29 75 13z m-1942 -25 c32 -14 89 -31 128 -39 38 -9 58 -16 44 -16 -14 -1
-63 8 -109 19 -46 11 -86 19 -88 16 -3 -3 126 -36 205 -52 40 -8 23 -24 -25
-24 -72 0 -180 26 -228 54 -100 59 -43 91 73 42z m2277 4 c12 -19 -53 -67
-112 -83 -46 -13 -204 -37 -247 -37 -5 0 -3 6 3 14 6 7 31 16 55 19 61 9 188
38 184 43 -3 2 -41 -3 -87 -12 -45 -8 -86 -14 -92 -12 -5 2 39 20 98 40 106
37 186 48 198 28z m-1740 -52 c62 -21 66 -24 40 -28 -29 -6 -29 -6 10 -13 22
-4 52 -7 66 -7 15 0 33 -7 40 -17 13 -15 8 -16 -61 -9 -118 11 -240 55 -240
86 0 17 72 11 145 -12z m-302 -15 c-7 -2 -19 -2 -25 0 -7 3 -2 5 12 5 14 0 19
-2 13 -5z m84 -35 c29 -12 50 -25 47 -30 -8 -13 12 -9 50 9 30 14 43 15 87 5
28 -7 63 -13 77 -13 23 -1 22 -3 -8 -9 -25 -5 -5 -8 70 -10 88 -2 98 -4 60
-11 -74 -13 -184 -8 -239 11 -28 9 -53 14 -56 11 -12 -12 113 -41 204 -48 78
-5 90 -8 66 -15 -80 -24 -274 -4 -235 24 12 8 11 9 -4 4 -37 -12 -209 50 -220
80 -8 21 39 18 101 -8z m1588 -5 l-17 -26 93 6 c52 3 117 11 144 17 53 13 115
4 122 -17 13 -38 -133 -68 -277 -57 -106 7 -142 18 -97 29 15 4 38 4 53 1 14
-4 66 -3 117 1 l92 8 -130 5 c-111 4 -134 2 -161 -12 -26 -15 -138 -58 -151
-58 -2 0 -2 4 2 9 3 6 -1 15 -8 22 -11 11 1 19 66 45 43 18 84 37 90 43 6 6
26 11 45 11 l34 0 -17 -27z m-1840 2 c44 -8 100 -15 125 -17 25 -1 -9 -5 -75
-8 l-120 -6 130 -2 c123 -2 169 -11 151 -29 -10 -10 -239 -11 -286 0 -19 4
-51 17 -70 28 -32 20 -33 22 -15 35 24 18 59 17 160 -1z m869 -48 c21 -34 24
-48 17 -72 -7 -23 -9 -25 -10 -9 -1 12 -10 33 -21 47 -17 22 -28 77 -15 77 2
0 15 -19 29 -43z m336 27 c0 -23 -20 -55 -30 -49 -5 3 -20 -14 -34 -37 l-26
-43 0 41 c0 43 10 61 50 88 31 20 40 20 40 0z m-908 -55 c29 -7 64 -19 77 -28
37 -24 195 -20 286 7 38 11 71 19 73 17 5 -4 -50 -28 -115 -50 -55 -19 -183
-20 -183 -2 0 9 -2 9 -9 -1 -6 -10 -22 -11 -73 -2 -97 15 -170 49 -136 63 20
8 23 8 80 -4z m1114 0 c44 -8 72 -8 109 1 37 9 57 9 79 0 85 -32 -87 -54 -204
-25 -38 9 -70 21 -70 26 0 12 14 11 86 -2z m-1351 -17 l50 -7 -55 -6 c-33 -4
-11 -5 55 -3 131 4 122 -9 -17 -26 -109 -13 -178 -6 -210 20 -50 40 2 47 177
22z m1750 8 c8 -13 -32 -36 -95 -53 -85 -23 -122 -28 -114 -16 4 7 -2 6 -16
-1 -33 -18 -135 -5 -220 26 -39 15 -70 31 -70 36 0 6 8 7 18 3 62 -25 129 -37
220 -40 71 -2 100 0 91 7 -10 7 -6 8 14 5 15 -2 25 -2 22 1 -7 7 84 39 117 41
15 0 29 -3 33 -9z m-1961 -153 c14 -49 28 -93 32 -98 3 -5 0 -9 -6 -9 -8 0 -8
-6 0 -20 7 -14 7 -20 0 -20 -5 0 -10 -6 -10 -12 0 -7 -22 -26 -48 -43 l-47
-30 -6 -70 c-4 -41 -6 1 -4 100 1 140 6 187 25 265 22 88 24 92 31 60 3 -19
18 -75 33 -123z m329 146 c-13 -2 -33 -2 -45 0 -13 2 -3 4 22 4 25 0 35 -2 23
-4z m681 -25 c5 -14 6 -34 2 -44 -7 -18 -8 -17 -25 5 -19 25 -17 75 3 68 6 -2
15 -15 20 -29z m326 -12 c0 -21 -27 -56 -43 -56 -13 0 -2 67 14 86 10 12 14
12 20 2 5 -7 9 -22 9 -32z m966 34 l28 -11 -23 -22 c-20 -20 -32 -22 -124 -22
-108 1 -241 21 -231 36 3 5 42 7 87 5 45 -2 64 -1 42 3 -30 4 -16 7 60 11 55
4 108 7 117 8 9 1 29 -3 44 -8z m-1406 -11 c-34 -23 -95 -52 -139 -65 -54 -16
-145 -19 -136 -4 4 6 -7 9 -27 9 -24 -1 -27 -3 -10 -6 13 -3 21 -10 19 -16 -5
-17 -172 -16 -189 1 -9 9 -9 15 0 24 9 9 41 11 110 8 173 -8 211 -5 292 28 79
31 105 39 80 21z m280 -8 c-5 -11 -10 -32 -10 -47 0 -31 -25 -64 -49 -64 -12
0 -13 2 -4 8 15 9 13 72 -2 72 -8 1 64 50 73 50 1 0 -2 -9 -8 -19z m-230 6 c0
-7 -87 -66 -101 -69 -8 -2 -17 -7 -20 -12 -9 -12 -163 -57 -231 -67 -62 -9
-127 4 -98 21 21 11 159 32 170 25 5 -3 11 -1 15 5 3 5 21 10 39 10 20 0 68
18 117 43 76 40 109 53 109 44z m525 -23 c85 -37 181 -50 298 -41 55 4 105 11
113 15 9 5 61 -2 122 -15 59 -12 114 -22 122 -22 19 1 -23 13 -123 34 -43 10
-76 19 -74 21 2 3 26 0 53 -6 27 -6 93 -15 147 -20 61 -5 107 -14 123 -25 76
-49 -52 -59 -216 -16 -168 44 -167 44 -151 33 11 -8 8 -13 -14 -28 -34 -22
-219 -34 -238 -15 -12 12 7 14 98 11 28 -1 48 1 44 4 -3 3 -54 7 -115 8 -94 3
-117 7 -164 29 -53 26 -102 58 -89 59 4 0 33 -12 64 -26z m95 -70 c25 -3 50
-13 57 -21 8 -10 37 -15 96 -18 47 -1 90 -6 96 -10 7 -4 22 -8 34 -10 12 -2
67 -20 121 -40 54 -19 101 -34 103 -31 2 2 -15 10 -39 18 -24 9 -78 30 -122
48 -60 25 -75 35 -62 42 10 6 28 2 53 -10 21 -11 81 -34 133 -52 103 -35 143
-61 122 -82 -9 -9 -24 -10 -67 -1 -65 14 -229 79 -233 93 -2 6 -13 4 -25 -5
-27 -19 -115 -20 -187 -1 -30 8 -68 12 -85 9 -43 -7 -117 32 -175 91 -24 25
-39 46 -33 46 7 0 15 -4 18 -10 12 -20 97 -72 121 -75 14 -1 39 -12 55 -24 16
-12 29 -16 29 -10 0 6 6 9 14 6 7 -3 35 -8 62 -11 46 -5 47 -5 14 5 -19 5 -55
14 -80 20 -59 12 -136 51 -180 89 -34 30 -33 30 40 -9 41 -22 95 -43 120 -47z
m-580 17 c0 -9 -13 -31 -29 -48 -16 -18 -26 -33 -21 -35 4 -2 11 -13 14 -25
10 -33 -17 -30 -44 5 -19 23 -20 27 -6 30 11 2 16 14 16 39 0 31 2 34 15 23 9
-7 18 -10 22 -6 3 3 1 6 -5 6 -13 0 -16 29 -5 56 6 15 8 15 25 -6 10 -12 18
-30 18 -39z m-565 40 c-6 -6 -50 -22 -100 -36 -110 -33 -247 -40 -253 -14 -5
27 45 38 181 43 70 2 131 6 134 10 4 3 15 6 27 6 12 0 16 -4 11 -9z m474 -41
c-44 -38 -126 -80 -157 -80 -36 0 -22 21 24 35 49 15 140 61 149 75 4 6 10 9
13 5 3 -3 -10 -19 -29 -35z m451 -3 c0 -25 -6 -37 -22 -46 -22 -11 -6 -8 27 5
21 9 19 -9 -6 -40 -24 -30 -66 -37 -51 -8 5 9 9 31 8 47 -1 24 26 75 41 75 2
0 3 -15 3 -33z m-940 -17 c0 -14 -155 -59 -226 -66 -43 -5 -63 -3 -69 6 -13
21 14 34 74 35 33 0 54 4 48 8 -7 5 1 6 18 3 17 -3 55 3 85 13 55 18 70 18 70
1z m1040 -45 c5 3 12 0 16 -6 5 -8 3 -9 -6 -4 -9 5 -11 4 -6 -4 4 -6 11 -9 16
-6 14 9 50 -14 50 -30 0 -19 -3 -19 -50 5 -43 22 -110 84 -110 101 0 6 18 -5
40 -25 23 -20 45 -34 50 -31z m487 43 c15 -6 42 -12 58 -13 17 -2 70 -10 119
-19 122 -22 169 -66 72 -66 -60 0 -286 80 -286 102 0 11 3 10 37 -4z m-1057
-43 c-18 -19 -37 -32 -42 -29 -4 3 -8 1 -8 -4 0 -9 -43 -32 -59 -32 -5 0 -11
7 -15 15 -3 8 -2 14 2 13 4 -2 19 6 34 16 15 10 32 15 37 12 5 -4 13 -1 17 5
5 8 3 9 -6 4 -8 -5 -11 -4 -6 3 4 6 13 9 20 6 7 -3 19 2 26 11 7 8 17 15 23
15 6 0 -4 -16 -23 -35z m-414 16 c-9 -14 -175 -82 -230 -93 -29 -6 -61 -8 -71
-5 -31 13 8 44 65 51 27 4 68 13 91 21 23 9 44 13 46 11 2 -2 -15 -11 -39 -19
-24 -9 -36 -16 -28 -16 8 0 49 13 90 29 41 15 76 29 78 29 2 1 1 -3 -2 -8z
m14 -16 c0 -6 -97 -55 -107 -55 -4 1 17 14 47 30 61 32 60 32 60 25z m988 -71
c5 -9 11 -14 13 -13 7 5 129 -73 129 -82 0 -15 -29 -10 -69 10 -41 22 -72 51
-52 51 7 0 9 5 5 11 -4 8 -9 7 -14 -2 -7 -10 -14 -9 -33 4 -25 16 -77 77 -77
90 0 10 89 -53 98 -69z m-773 56 c-17 -7 -16 -9 10 -10 l30 -1 -37 -14 c-47
-17 -136 -27 -143 -15 -8 13 10 21 74 35 68 15 94 17 66 5z m-230 -32 c-76
-48 -153 -80 -203 -86 -54 -6 -55 14 -1 40 44 21 90 34 69 19 -17 -12 -10 -14
14 -5 9 3 13 10 10 15 -3 5 2 6 9 3 8 -3 37 6 64 20 71 37 99 33 38 -6z m70 6
c-11 -9 -46 -29 -77 -45 -32 -16 -58 -31 -58 -34 0 -7 52 14 96 40 47 28 68
21 27 -8 -54 -37 -187 -97 -216 -97 -52 0 -27 31 53 65 41 17 98 46 125 63 52
33 85 43 50 16z m355 6 c0 -15 -74 -70 -94 -70 -13 0 -5 21 15 41 11 11 27 18
34 15 8 -3 17 0 21 6 5 7 2 8 -6 3 -8 -5 -11 -4 -7 2 7 11 37 13 37 3z m520
-58 c15 -36 12 -52 -7 -45 -15 5 -16 4 -5 -8 7 -8 18 -14 25 -14 7 0 11 -8 9
-17 -1 -9 2 -19 8 -23 6 -4 7 1 4 12 -4 12 3 9 20 -10 29 -32 33 -47 12 -47
-16 0 -86 81 -90 103 -1 8 -9 26 -19 40 -9 15 -17 32 -17 39 0 8 -5 6 -11 -5
-14 -24 -64 -48 -86 -41 -10 3 -6 -2 10 -11 15 -8 27 -17 27 -18 0 -1 -20 -3
-45 -5 -34 -2 -45 1 -45 12 0 8 9 18 20 21 11 4 33 17 49 31 16 13 44 25 64
26 25 2 33 7 30 18 -7 22 36 -31 47 -58z m265 43 c79 -15 103 -45 38 -45 -64
1 -183 33 -183 49 0 9 94 7 145 -4z m-925 -16 c0 -12 -39 -27 -91 -35 -31 -5
-39 -3 -39 9 0 15 57 33 93 29 10 -1 15 2 12 8 -3 6 1 7 9 4 9 -3 16 -10 16
-15z m154 8 c-3 -9 7 -14 33 -15 37 -3 63 -16 63 -33 0 -17 -50 -9 -70 11 -19
19 -20 19 -32 -3 -7 -12 -11 -25 -10 -29 3 -12 -105 -124 -113 -116 -11 11 19
63 37 63 9 0 20 4 25 9 5 5 2 6 -6 1 -10 -5 -12 -4 -7 4 4 6 11 9 15 6 5 -2
16 4 26 15 19 21 7 28 -13 8 -9 -9 -12 -7 -12 11 0 12 14 35 32 52 37 33 39
34 32 16z m1056 -32 c95 -36 148 -73 136 -94 -16 -26 -111 4 -245 78 -104 57
-82 67 28 12 103 -52 119 -53 23 -2 -124 66 -103 68 58 6z m-1386 3 c-5 -8 -2
-9 9 -5 31 12 18 -3 -45 -49 -62 -46 -151 -94 -175 -94 -7 0 -13 9 -13 20 0
15 16 27 63 48 34 16 85 43 112 60 56 36 59 37 49 20z m204 -11 c1 -18 -7 -26
-38 -40 -91 -39 -107 -9 -19 35 29 15 54 27 54 27 0 1 1 -9 3 -22z m829 3 c24
-7 50 -21 59 -32 16 -17 16 -18 -15 -18 -33 0 -79 20 -120 51 l-24 19 29 -4
c16 -2 48 -9 71 -16z m431 -137 c14 -23 14 -23 -24 -23 -22 0 -59 9 -83 20
-69 32 -216 123 -204 127 6 2 50 -17 97 -42 47 -26 86 -45 86 -42 0 3 -34 24
-75 46 -41 23 -75 47 -75 55 0 18 259 -114 278 -141z m-679 116 c14 -39 14
-49 1 -49 -15 0 -43 48 -36 65 9 24 23 17 35 -16z m-532 -7 c1 -11 -17 -30
-45 -50 -57 -39 -76 -42 -61 -9 10 21 61 52 74 45 4 -2 11 5 16 15 12 21 14
21 16 -1z m714 -64 c21 -39 -3 -38 -58 2 -37 28 -58 61 -46 74 8 7 93 -55 104
-76z m-921 68 c0 -2 -27 -22 -60 -45 -86 -61 -74 -61 16 0 42 28 78 49 81 46
7 -8 -113 -104 -157 -127 -66 -34 -120 -22 -67 15 120 83 187 123 187 111z
m457 -6 c8 0 11 -4 8 -10 -7 -12 -95 -14 -95 -2 0 17 16 23 44 18 16 -3 35 -6
43 -6z m261 -62 c38 -87 41 -109 11 -82 -23 21 -43 56 -53 94 -4 14 5 3 19
-23 38 -70 42 -51 6 22 -17 34 -28 61 -23 61 5 0 23 -33 40 -72z m402 41 c25
-16 84 -50 133 -75 81 -41 112 -74 70 -74 -40 1 -253 122 -253 144 0 4 11 1
25 -8 14 -9 37 -23 53 -32 27 -15 27 -15 4 2 -99 74 -120 103 -32 43z m-544
-1 l19 -21 -35 7 c-19 3 -41 13 -50 21 -13 13 -11 15 16 15 19 0 38 -8 50 -22z
m-296 -17 c-9 -18 -8 -21 7 -22 16 0 15 -1 -2 -8 -11 -5 -33 -22 -49 -37 l-30
-29 22 35 c46 73 57 89 60 85 2 -2 -1 -13 -8 -24z m820 -64 c8 -6 -3 7 -25 27
-45 42 -43 41 74 -30 84 -50 112 -76 98 -90 -23 -23 -244 112 -244 150 0 11
12 6 41 -16 23 -18 48 -36 56 -41z m-1115 17 c-46 -43 -42 -41 40 17 17 12 2
-6 -31 -39 -61 -59 -118 -90 -130 -71 -3 5 7 21 23 34 37 33 136 105 143 105
3 -1 -17 -21 -45 -46z m441 25 c-14 -11 -26 -30 -26 -42 0 -16 -3 -18 -12 -9
-9 9 -9 15 0 24 18 18 14 32 -5 17 -9 -8 -22 -27 -29 -44 -12 -27 -13 -28 -14
-7 0 28 43 74 63 66 8 -3 18 -1 22 5 3 6 11 11 17 11 6 0 -1 -9 -16 -21z m52
0 c-21 -10 -44 -32 -52 -47 -13 -24 -15 -25 -16 -6 0 24 23 48 60 63 42 17 47
11 8 -10z m168 9 c3 -4 -1 -5 -10 -4 -8 1 -18 5 -22 8 -3 4 1 5 10 4 8 -1 18
-5 22 -8z m323 -14 c5 3 27 -9 49 -27 22 -18 62 -48 90 -66 77 -49 81 -86 7
-52 -46 21 -134 92 -167 136 -13 18 -15 24 -6 17 10 -8 21 -11 27 -8z m-434
-28 c0 -23 -4 -32 -12 -29 -16 6 -16 18 -3 44 14 25 15 25 15 -15z m230 7 c15
-27 15 -27 9 -3 -6 22 -5 23 10 11 9 -7 16 -27 16 -43 0 -27 -2 -29 -16 -17
-14 12 -44 61 -44 74 0 12 10 3 25 -22z m-703 -14 c-24 -38 -101 -119 -113
-119 -15 0 -10 32 8 52 9 10 21 18 28 18 6 0 29 18 50 40 47 48 53 50 27 9z
m430 2 c-4 -28 -2 -29 78 -56 79 -26 153 -73 120 -76 -8 0 -4 -4 10 -8 14 -4
31 -19 40 -33 13 -24 13 -30 -4 -65 l-18 -38 -14 28 c-13 23 -21 27 -58 27
-49 0 -99 -31 -89 -55 3 -8 26 -21 52 -29 41 -13 43 -15 15 -15 -27 -1 -121
25 -134 36 -2 2 2 8 10 14 10 6 5 7 -17 3 -43 -8 -75 1 -112 32 -35 29 -39 49
-15 75 12 13 13 22 5 38 -15 27 -14 73 2 95 12 16 14 16 31 -3 23 -25 36 -27
36 -6 0 15 46 65 60 65 3 0 5 -13 2 -29z m89 -37 c16 -19 4 -18 -15 2 -9 8
-16 27 -15 42 l1 27 8 -28 c5 -16 14 -35 21 -43z m65 45 c19 -21 19 -21 0 -18
-11 2 -20 12 -22 22 -3 22 -1 22 22 -4z m-571 -49 c-33 -65 -24 -65 12 0 38
69 62 67 27 -2 -26 -53 -70 -108 -86 -108 -22 0 -5 66 28 111 20 27 38 49 40
49 2 0 -7 -22 -21 -50z m235 46 c0 -2 -9 -6 -20 -9 -11 -3 -20 -1 -20 4 0 5 9
9 20 9 11 0 20 -2 20 -4z m23 -55 c4 -29 2 -40 -4 -30 -8 13 -14 88 -5 78 2
-2 6 -24 9 -48z m604 -31 c3 0 -4 16 -16 36 -34 58 -24 50 34 -27 57 -75 61
-84 46 -93 -23 -14 -121 108 -121 150 0 13 9 5 26 -23 14 -24 28 -43 31 -43z
m24 65 c15 0 119 -104 119 -119 0 -30 -24 -16 -87 48 -57 59 -83 100 -50 79 6
-4 15 -8 18 -8z m-785 -49 c-33 -79 -86 -126 -86 -76 0 21 50 110 63 110 4 0
-2 -18 -13 -40 -28 -54 -18 -51 15 6 31 53 43 53 21 0z m154 -40 c8 -10 9 -16
2 -16 -17 0 -32 35 -31 72 l1 33 7 -37 c4 -20 13 -44 21 -52z m315 74 c3 -5
-1 -10 -10 -10 -9 0 -13 5 -10 10 3 6 8 10 10 10 2 0 7 -4 10 -10z m75 -48 c0
-12 -3 -12 -15 -2 -9 7 -13 15 -10 18 3 3 -3 15 -12 26 -13 15 -10 14 10 -3
15 -14 27 -31 27 -39z m145 -22 c3 0 -2 14 -10 31 -32 60 -3 45 43 -23 53 -78
33 -139 -21 -65 -34 45 -67 113 -59 121 3 4 14 -9 24 -29 10 -19 21 -35 23
-35z m-646 33 c-12 -15 -12 -16 6 -10 16 6 15 3 -5 -12 -14 -11 -27 -18 -29
-16 -5 5 27 55 35 55 4 0 0 -8 -7 -17z m596 -71 c4 -4 -2 12 -14 36 -32 63
-12 51 32 -19 38 -61 44 -83 28 -93 -20 -12 -120 132 -104 148 4 4 17 -9 28
-29 12 -19 25 -39 30 -43z m-481 -2 c19 -8 19 -9 2 -9 -24 -1 -56 27 -56 48 0
11 5 9 16 -7 9 -13 26 -27 38 -32z m-133 -23 c-5 -21 -5 -37 0 -37 5 0 9 4 9
8 0 5 7 17 16 28 14 18 15 18 4 -4 -6 -13 -15 -42 -19 -65 l-8 -42 -12 43 c-9
33 -9 51 -1 78 15 45 21 40 11 -9z m-894 -29 c-3 -8 -6 -5 -6 6 -1 11 2 17 5
13 3 -3 4 -12 1 -19z m604 -27 c-6 -10 -9 -20 -7 -22 2 -2 -11 -15 -27 -29
l-31 -25 32 48 c33 47 52 64 33 28z m349 -28 c-1 -24 -2 -26 -11 -10 -5 9 -7
22 -4 27 10 17 15 11 15 -17z m384 -1 c2 -4 -11 -6 -30 -4 -19 2 -34 6 -34 8
0 8 59 4 64 -4z m-334 -58 c0 -3 -7 -1 -15 6 -8 7 -15 17 -15 22 0 5 7 3 15
-6 8 -8 15 -18 15 -22z m-71 -24 c1 -13 0 -13 -9 0 -5 8 -9 24 -9 35 l0 20 9
-20 c5 -11 9 -27 9 -35z m121 8 c0 -12 -6 -9 -26 13 -19 22 -19 22 4 8 12 -8
22 -17 22 -21z m-520 2 c-6 -11 -13 -20 -16 -20 -2 0 0 9 6 20 6 11 13 20 16
20 2 0 0 -9 -6 -20z m365 -10 c3 -6 -4 -10 -17 -10 -13 0 -28 -3 -34 -7 -5 -5
-1 0 9 10 22 19 33 21 42 7z m155 -44 c0 -12 -5 -7 -19 24 -11 24 -11 24 3 6
9 -11 16 -24 16 -30z m50 40 c0 -11 -19 -15 -25 -6 -3 5 1 10 9 10 9 0 16 -2
16 -4z m63 -23 c-3 -7 -9 -13 -14 -13 -5 0 -9 6 -9 13 0 8 6 14 14 14 8 0 12
-6 9 -14z m42 7 c-3 -5 -11 -10 -16 -10 -6 0 -7 5 -4 10 3 6 11 10 16 10 6 0
7 -4 4 -10z m40 0 c-3 -5 -12 -10 -18 -10 -7 0 -6 4 3 10 19 12 23 12 15 0z
m80 -9 c-3 -6 -16 -16 -28 -22 -20 -11 -20 -9 3 13 25 24 38 29 25 9z m-517
-11 c-7 -10 -14 -17 -17 -15 -4 4 18 35 25 35 2 0 -1 -9 -8 -20z m167 10 c3
-6 -1 -7 -9 -4 -18 7 -21 14 -7 14 6 0 13 -4 16 -10z m26 -13 c-10 -9 -11 -8
-5 6 3 10 9 15 12 12 3 -3 0 -11 -7 -18z m122 8 c-3 -9 -8 -14 -10 -11 -3 3
-2 9 2 15 9 16 15 13 8 -4z m-282 -32 c12 -14 12 -16 0 -8 -11 6 -13 4 -8 -9
4 -9 3 -15 -2 -11 -6 3 -9 14 -8 25 2 24 1 24 18 3z m343 2 c-6 -16 15 -19 98
-15 48 2 132 -36 124 -56 -3 -9 -6 -22 -6 -30 0 -19 -12 -18 -38 6 -12 11 -27
20 -34 20 -7 0 -21 7 -30 14 -25 18 -156 14 -198 -7 -18 -9 -36 -14 -41 -11
-5 3 -8 0 -7 -8 2 -7 -5 -12 -14 -12 -10 1 -16 -1 -15 -5 4 -13 -55 -61 -67
-54 -6 4 -4 -2 4 -12 14 -17 13 -18 -15 -12 -16 3 -24 4 -17 1 14 -7 16 -34 2
-34 -5 0 -10 -7 -10 -15 0 -18 -5 -19 -29 -3 -16 10 -18 16 -9 32 6 12 15 24
20 27 5 3 2 9 -7 12 -9 4 -14 3 -11 -1 2 -4 -2 -18 -9 -31 l-13 -25 -16 32
c-16 32 -8 50 17 36 6 -4 1 5 -12 20 -35 37 -17 52 38 34 23 -8 39 -17 35 -20
-3 -4 -1 -15 6 -25 8 -12 10 -13 7 -2 -3 8 3 26 13 39 18 24 18 24 41 5 l22
-20 -8 23 c-5 16 -1 29 11 43 9 10 12 19 6 19 -6 0 -14 -5 -17 -11 -4 -6 -14
-8 -24 -4 -13 5 -14 4 -3 -6 19 -20 14 -31 -9 -19 -11 6 -25 9 -32 6 -7 -2 -4
-5 7 -5 14 -1 16 -4 7 -15 -6 -7 -22 -11 -36 -8 -24 4 -25 6 -10 22 15 16 14
18 -6 23 -12 3 -19 11 -16 19 5 14 19 15 57 3 14 -4 22 -4 18 0 -17 18 13 33
55 28 50 -7 56 -11 37 -23 -9 -6 -10 -10 -3 -10 6 0 15 5 18 10 9 15 85 13 85
-2 1 -7 8 -1 16 15 16 29 27 37 18 12z m326 -15 c6 -11 8 -26 4 -32 -5 -7 -10
-4 -15 10 -5 12 -14 22 -20 22 -8 0 -9 -4 0 -13 8 -11 5 -19 -15 -38 -14 -13
-30 -33 -35 -44 -10 -20 -10 -20 5 -1 9 11 16 14 16 7 0 -7 4 -10 9 -6 15 8
25 -15 12 -28 -6 -6 -11 -16 -11 -21 0 -6 9 0 19 14 19 24 19 25 -5 41 -22 14
-23 17 -9 29 12 10 18 10 30 0 8 -7 12 -16 9 -21 -10 -18 3 -9 27 18 19 21 20
25 6 20 -23 -8 -13 9 13 23 20 10 50 -9 50 -33 0 -8 -4 -7 -12 1 -7 7 -17 12
-22 12 -6 0 -5 -4 3 -9 12 -8 10 -16 -13 -45 -51 -68 -108 -79 -136 -26 -15
28 -12 49 12 83 13 18 24 35 24 40 1 4 2 9 3 12 3 14 42 2 51 -15z m-635 -20
c0 -24 -2 -27 -13 -16 -7 7 -10 20 -6 29 10 26 19 20 19 -13z m560 20 c4 -6 1
-17 -5 -25 -9 -11 -16 -12 -30 -3 -10 7 -17 16 -14 20 3 4 -1 5 -9 2 -8 -3
-18 -1 -22 5 -4 7 8 11 34 11 22 0 43 -5 46 -10z m-651 -12 c-3 -5 -10 -6 -15
-3 -5 4 -9 1 -9 -4 0 -6 -5 -11 -11 -11 -8 0 -8 4 0 13 12 15 44 19 35 5z m51
-53 c-7 -5 -15 -17 -18 -25 -4 -10 -6 -8 -6 7 -1 12 -6 25 -11 28 -20 13 1 23
24 12 18 -9 21 -14 11 -22z m-55 -15 c0 -5 -5 -10 -11 -10 -5 0 -7 5 -4 10 3
6 8 10 11 10 2 0 4 -4 4 -10z m867 -5 c2 -5 -10 -10 -27 -10 -18 0 -30 5 -30
13 0 16 52 13 57 -3z m-397 -107 l23 -77 91 -3 91 -3 -67 -48 c-37 -26 -69
-51 -72 -56 -3 -5 6 -41 19 -82 14 -40 25 -76 25 -81 0 -4 -32 15 -70 44 l-71
51 -55 -39 c-30 -21 -64 -45 -74 -52 -18 -13 -17 -8 5 65 14 43 25 83 25 89 0
6 -31 33 -69 60 l-70 49 92 5 91 5 26 82 c14 45 28 79 31 75 3 -4 16 -42 29
-84z m380 66 c0 -15 -13 -38 -32 -57 -17 -18 -31 -33 -30 -34 1 -2 2 -9 1 -15
0 -7 -4 -4 -8 6 -5 12 -1 33 10 55 10 20 20 44 23 54 8 27 36 21 36 -9z m-812
-1 c-4 -15 32 -71 56 -91 14 -11 22 -22 19 -26 -3 -3 0 -6 7 -6 10 0 11 -3 4
-10 -7 -7 -7 -36 -1 -83 4 -39 10 -87 12 -105 2 -17 19 -54 39 -81 20 -26 32
-51 28 -55 -4 -4 -2 -7 3 -6 25 5 37 -1 31 -16 -5 -13 -4 -14 7 -5 11 9 28 5
73 -16 59 -27 149 -40 159 -22 4 5 12 9 19 9 8 0 30 7 50 15 20 8 39 16 43 16
5 0 14 6 21 12 10 8 16 7 24 -4 8 -11 9 -11 5 3 -6 19 15 42 28 30 5 -4 5 -2
2 5 -4 6 -1 18 7 25 22 22 44 72 38 87 -2 8 -1 11 4 8 13 -7 22 141 12 183 -2
8 -11 30 -21 49 -16 32 -16 35 1 47 24 18 30 17 37 -7 4 -11 9 -18 12 -16 2 3
0 14 -6 25 -8 15 -7 23 5 33 13 10 17 10 25 -2 5 -8 9 -18 9 -23 0 -15 -41
-55 -54 -52 -6 2 -8 1 -3 -1 4 -3 5 -8 2 -13 -3 -4 5 -6 17 -2 18 4 20 2 16
-16 -4 -12 -2 -20 2 -17 5 3 11 -5 13 -17 4 -21 4 -20 6 3 0 15 10 37 22 50
13 16 19 18 16 7 -3 -9 3 -24 15 -35 18 -16 20 -27 16 -96 -3 -53 -9 -82 -19
-88 -8 -5 -10 -9 -5 -9 5 0 3 -7 -4 -15 -10 -12 -10 -15 1 -15 9 -1 8 -5 -5
-15 -11 -8 -16 -15 -12 -15 5 0 3 -7 -4 -15 -7 -8 -9 -15 -4 -15 17 0 -32 -29
-51 -31 -18 -1 -18 -2 -2 -6 10 -3 25 1 34 9 15 12 15 11 5 -9 -7 -12 -21 -28
-31 -35 -10 -7 -19 -17 -20 -23 0 -5 -5 -11 -11 -11 -22 -3 -24 -4 -12 -16 23
-23 -136 -113 -167 -94 -5 3 -14 0 -20 -8 -14 -17 -55 -9 -77 15 -16 18 -16
19 2 19 11 0 31 -7 44 -16 l25 -16 -24 21 -23 21 25 0 c30 0 44 15 21 24 -8 3
-13 2 -10 -3 7 -11 -48 -23 -68 -15 -8 3 -12 13 -9 22 4 14 3 15 -5 2 -6 -8
-8 -18 -6 -22 6 -10 -8 -10 -30 -2 -14 5 -14 9 -4 23 9 11 7 11 -9 -2 -26 -23
-51 -14 -31 11 12 15 11 16 -4 4 -10 -8 -14 -20 -11 -30 6 -15 5 -15 -10 -3
-25 20 -21 7 5 -15 12 -10 18 -13 14 -6 -14 24 23 12 43 -14 12 -15 21 -23 21
-19 0 5 -8 17 -17 28 -17 19 -17 19 7 12 28 -8 67 -41 58 -50 -3 -3 -22 -6
-43 -7 -26 -1 -42 4 -51 17 -8 10 -14 13 -14 7 0 -18 -21 -15 -36 6 -13 16
-13 16 -14 -3 -1 -18 -2 -18 -13 -4 -7 9 -17 14 -24 12 -6 -2 -33 7 -60 20
-51 26 -96 67 -73 67 7 0 1 9 -13 20 -20 16 -24 27 -21 48 5 26 5 26 -10 7
-13 -17 -17 -14 -16 10 1 3 -6 13 -15 21 -8 9 -13 20 -10 25 4 5 1 9 -5 9 -7
0 -9 7 -6 16 4 9 2 13 -5 8 -7 -4 -9 0 -5 14 4 11 2 23 -4 27 -6 4 -9 14 -5
23 3 8 1 18 -5 22 -28 17 -23 160 5 160 9 0 12 6 8 17 -6 14 -3 14 25 -2 26
-16 29 -22 21 -38 -8 -14 -6 -23 7 -38 9 -10 21 -19 27 -19 5 0 -1 8 -13 18
-19 15 -21 22 -12 38 9 16 4 24 -30 53 -30 26 -39 40 -35 58 5 29 -1 30 -13 1
-8 -22 -9 -22 -9 -2 -1 11 2 24 6 27 9 9 43 9 41 0z m-796 -1067 c-68 -74 -68
-75 -46 -477 5 -97 4 -121 -10 -148 -17 -32 -17 -32 3 -21 12 6 51 13 89 17
37 3 73 10 80 16 9 7 12 4 12 -11 0 -23 -50 -86 -84 -105 -17 -9 -215 -39
-223 -33 -1 1 3 21 9 45 8 33 7 77 -6 189 -29 260 -30 300 -14 320 8 9 35 51
60 92 45 73 93 126 133 148 38 21 37 12 -3 -32z m-107 -27 c-28 -27 -65 -59
-83 -71 -34 -21 -53 -21 -168 -2 -35 5 -45 3 -63 -15 -12 -12 -21 -34 -21 -51
0 -37 -27 -41 -36 -5 -10 39 3 73 44 117 50 53 109 69 209 56 58 -8 82 -7 115
5 24 9 45 16 48 16 2 1 -18 -22 -45 -50z m1087 -104 c65 -31 98 -32 105 -5 9
33 23 23 23 -16 0 -31 -4 -37 -35 -50 -62 -26 -115 -28 -177 -7 -61 21 -88 16
-88 -16 0 -26 26 -46 105 -81 194 -86 205 -97 205 -189 0 -44 -5 -56 -35 -89
-19 -22 -55 -50 -80 -63 l-45 -24 -78 28 c-110 38 -192 34 -175 -9 3 -8 -1
-14 -11 -14 -23 0 -31 26 -17 56 14 32 103 74 158 74 22 0 74 -11 114 -25 56
-18 75 -21 81 -12 22 35 -11 64 -125 107 -145 55 -164 67 -181 111 -29 73 -16
121 50 179 40 34 107 69 136 70 9 0 40 -11 70 -25z m472 -30 c39 -25 82 -54
96 -64 24 -19 24 -21 7 -34 -31 -22 -42 -171 -21 -274 2 -14 14 -25 29 -29 20
-5 22 -9 14 -27 -6 -12 -28 -34 -49 -49 -35 -24 -40 -25 -52 -11 -7 9 -26 24
-42 34 -29 17 -29 17 -83 -19 l-55 -36 -32 19 c-17 10 -50 28 -74 40 -37 19
-41 23 -28 35 13 10 16 41 16 184 l0 172 70 34 c39 19 78 42 87 52 23 26 37
23 117 -27z m428 -1 c26 -13 49 -27 52 -32 7 -11 -30 -71 -48 -78 -8 -3 -33 4
-56 16 -23 12 -43 20 -45 18 -5 -5 -25 -231 -25 -281 0 -44 2 -48 34 -64 32
-15 37 -15 61 1 28 18 55 15 55 -6 0 -17 -111 -88 -136 -88 -10 0 -47 13 -82
30 -56 26 -62 32 -52 49 6 11 10 89 10 184 0 160 -1 164 -22 174 -21 9 -20 11
17 23 57 18 133 60 139 77 7 17 28 12 98 -23z m-1431 7 c41 -18 75 -25 107
-22 6 1 12 10 12 21 0 11 5 20 10 20 6 0 10 -6 10 -12 0 -7 3 -22 6 -34 5 -18
-3 -25 -48 -44 -59 -26 -132 -30 -191 -11 -43 15 -57 9 -57 -24 0 -32 24 -47
155 -95 140 -51 158 -68 163 -153 3 -57 1 -65 -28 -100 -17 -20 -52 -49 -76
-63 l-45 -27 -72 22 c-113 33 -196 26 -180 -16 4 -11 0 -14 -13 -11 -48 9 -15
72 58 109 48 25 137 25 216 0 l60 -18 6 21 c9 35 -24 56 -165 105 -149 52
-166 66 -175 146 -6 46 -3 54 31 98 35 46 124 107 156 107 9 0 36 -9 60 -19z
m1872 -96 c84 -66 87 -70 69 -85 -29 -23 -43 -75 -49 -187 -6 -102 -6 -102 19
-114 36 -16 26 -40 -27 -68 l-45 -24 -40 37 -41 37 -46 -25 c-25 -15 -55 -26
-66 -26 -11 0 -46 17 -76 37 -31 21 -58 39 -60 40 -2 2 3 11 12 21 11 12 19
55 27 152 17 210 10 192 83 218 35 12 79 33 98 46 19 13 39 21 44 17 6 -4 50
-38 98 -76z m317 -26 l12 -29 53 30 c29 16 59 30 68 30 20 0 50 -76 42 -110
-7 -31 -25 -50 -72 -74 -47 -24 -53 -21 -41 20 11 42 4 84 -15 84 -33 0 -45
-29 -72 -178 l-29 -153 27 -26 c21 -22 28 -24 41 -14 8 7 23 11 33 9 12 -2 -7
-17 -57 -45 l-74 -42 -51 47 c-27 26 -52 50 -54 55 -2 5 4 23 13 40 18 33 58
311 49 335 -4 9 -15 11 -37 6 -42 -8 -25 9 51 51 l58 33 22 -20 c12 -11 27
-33 33 -49z m-1510 -20 c0 -27 -3 -49 -6 -49 -12 0 -136 62 -132 66 9 8 123
41 131 37 4 -2 7 -26 7 -54z m478 -104 c-4 -116 -8 -132 -27 -120 -14 8 -14
190 -1 216 25 45 33 19 28 -96z m856 47 c2 -4 -2 -57 -10 -117 -15 -107 -30
-141 -59 -132 -30 10 -8 197 27 235 23 23 34 27 42 14z m271 -212 l0 -55 -44
-3 c-41 -3 -43 -2 -38 20 3 13 9 40 13 61 6 35 9 38 38 35 31 -3 31 -4 31 -58z
m62 -386 c-3 -3 -12 -4 -19 -1 -8 3 -5 6 6 6 11 1 17 -2 13 -5z m10 -50 c-3
-3 -12 -4 -19 -1 -8 3 -5 6 6 6 11 1 17 -2 13 -5z"/>
<path d="M2806 5064 c-11 -43 -24 -54 -65 -54 l-36 -1 32 -28 c30 -25 32 -30
23 -61 -12 -42 -8 -47 22 -26 30 21 44 20 79 -5 l30 -21 -7 42 c-6 36 -3 45
22 71 l28 29 -28 0 c-34 0 -66 16 -66 33 0 7 -6 21 -14 32 -12 17 -13 16 -20
-11z"/>
<path d="M2526 5048 c-15 -35 -19 -38 -58 -38 l-42 0 33 -28 c31 -26 33 -29
23 -65 -6 -20 -8 -37 -6 -37 3 0 18 10 34 22 l30 22 30 -22 c16 -12 31 -22 34
-22 2 0 0 17 -6 37 -9 35 -8 38 23 64 l34 28 -44 3 c-41 3 -45 6 -57 38 l-12
35 -16 -37z"/>
<path d="M3080 5045 c-11 -33 -14 -35 -53 -35 l-42 0 32 -30 c29 -27 31 -33
21 -61 -14 -40 -5 -46 31 -19 l31 21 29 -20 c39 -28 41 -27 28 15 -11 35 -10
38 22 65 l34 28 -44 3 c-39 3 -44 6 -53 36 -12 41 -22 41 -36 -3z"/>
<path d="M3360 5045 c-11 -32 -15 -35 -53 -35 l-42 -1 34 -28 c32 -26 33 -30
23 -61 -16 -45 -17 -44 23 -20 l35 22 29 -21 c39 -28 41 -27 28 15 -11 35 -10
38 23 65 l34 29 -42 0 c-40 0 -44 3 -58 35 -8 19 -16 35 -18 35 -3 0 -10 -16
-16 -35z"/>
<path d="M1115 3600 l-29 -89 -100 -3 -100 -3 77 -58 c42 -31 77 -61 77 -65 0
-5 -11 -42 -25 -83 -14 -41 -24 -80 -23 -87 2 -9 30 6 81 43 l77 56 76 -55
c43 -31 79 -54 81 -52 2 2 -7 42 -21 88 -14 46 -26 87 -26 91 0 3 35 33 77 64
l77 58 -100 3 -100 3 -29 89 c-16 50 -32 90 -35 90 -3 0 -19 -40 -35 -90z"/>
<path d="M4695 3600 l-29 -89 -100 -3 -101 -3 77 -55 c42 -30 77 -62 77 -71 1
-8 -10 -49 -24 -89 -14 -41 -24 -78 -22 -83 1 -5 37 17 80 48 l77 56 77 -56
c48 -34 79 -51 81 -43 1 7 -9 46 -23 87 -14 41 -25 78 -25 83 0 4 35 34 78 65
l77 58 -101 3 -100 3 -29 89 c-16 50 -32 90 -35 90 -3 0 -19 -40 -35 -90z"/>
<path d="M1850 4060 c8 -5 20 -10 25 -10 6 0 3 5 -5 10 -8 5 -19 10 -25 10 -5
0 -3 -5 5 -10z"/>
<path d="M2390 3996 c0 -2 8 -10 18 -17 15 -13 16 -12 3 4 -13 16 -21 21 -21
13z"/>
<path d="M2190 3926 c0 -7 130 -79 135 -75 2 2 -28 21 -66 42 -38 20 -69 35
-69 33z"/>
<path d="M1890 3920 c8 -5 20 -10 25 -10 6 0 3 5 -5 10 -8 5 -19 10 -25 10 -5
0 -3 -5 5 -10z"/>
<path d="M2200 3825 c14 -8 30 -14 35 -14 6 0 -1 6 -15 14 -14 8 -29 14 -35
14 -5 0 1 -6 15 -14z"/>
<path d="M3730 3820 c-9 -6 -10 -10 -3 -10 6 0 15 5 18 10 8 12 4 12 -15 0z"/>
<path d="M2418 3783 c6 -2 18 -2 25 0 6 3 1 5 -13 5 -14 0 -19 -2 -12 -5z"/>
<path d="M2458 3663 c7 -3 16 -2 19 1 4 3 -2 6 -13 5 -11 0 -14 -3 -6 -6z"/>
<path d="M3640 3705 c-19 -7 -28 -14 -20 -14 8 0 29 6 45 14 39 17 21 18 -25
0z"/>
<path d="M2298 3653 c6 -2 18 -2 25 0 6 3 1 5 -13 5 -14 0 -19 -2 -12 -5z"/>
<path d="M3978 3633 c12 -2 30 -2 40 0 9 3 -1 5 -23 4 -22 0 -30 -2 -17 -4z"/>
<path d="M2460 3530 c19 -13 30 -13 30 0 0 6 -10 10 -22 10 -19 0 -20 -2 -8
-10z"/>
<path d="M2045 3590 c-27 -7 -27 -8 -5 -8 14 0 39 4 55 8 27 7 27 8 5 8 -14 0
-38 -4 -55 -8z"/>
<path d="M3332 3384 c10 -10 20 -16 22 -13 3 3 -5 11 -17 18 -21 13 -21 12 -5
-5z"/>
<path d="M2331 3380 c-61 -41 -65 -48 -6 -15 54 30 75 45 60 44 -6 0 -30 -13
-54 -29z"/>
<path d="M3260 3387 c0 -2 15 -16 33 -33 l32 -29 -29 33 c-28 30 -36 37 -36
29z"/>
<path d="M3419 3297 c16 -20 91 -81 91 -74 0 3 -24 25 -52 48 -29 24 -47 36
-39 26z"/>
<path d="M2885 3259 c-4 -6 -5 -12 -2 -15 2 -3 7 2 10 11 7 17 1 20 -8 4z"/>
<path d="M2801 3204 c0 -11 3 -14 6 -6 3 7 2 16 -1 19 -3 4 -6 -2 -5 -13z"/>
<path d="M2973 3170 c9 -6 17 -20 17 -31 0 -11 9 -23 20 -27 19 -7 19 -10 -17
-51 -24 -28 -29 -39 -15 -30 12 8 22 17 22 20 0 3 18 26 39 51 l39 44 -41 11
c-23 7 -51 15 -62 18 -18 6 -18 5 -2 -5z"/>
<path d="M2830 3056 c0 -2 7 -7 16 -10 8 -3 12 -2 9 4 -6 10 -25 14 -25 6z"/>
<path d="M2886 3045 c-11 -8 -15 -15 -9 -15 6 0 16 7 23 15 16 19 11 19 -14 0z"/>
<path d="M3400 3254 c0 -6 15 -23 32 -40 l33 -29 -25 30 c-14 17 -28 34 -32
40 -5 5 -8 5 -8 -1z"/>
<path d="M3069 2833 c-13 -16 -12 -17 4 -4 16 13 21 21 13 21 -2 0 -10 -8 -17
-17z"/>
<path d="M2559 2443 c-13 -16 -12 -17 4 -4 9 7 17 15 17 17 0 8 -8 3 -21 -13z"/>
<path d="M3334 2449 c-11 -6 -34 -40 -52 -77 -17 -37 -23 -58 -14 -46 10 11
24 19 32 17 12 -4 13 -3 1 5 -8 6 -10 15 -5 23 5 8 9 21 11 29 1 8 15 25 30
37 30 25 30 27 -3 12z"/>
<path d="M2590 2442 c0 -5 9 -27 20 -50 11 -22 20 -45 20 -50 0 -4 15 -26 33
-48 19 -21 33 -45 31 -52 -1 -7 0 -8 3 -2 2 5 9 8 14 4 19 -11 8 8 -21 36 -39
38 -86 140 -70 150 8 5 7 9 -5 14 -22 8 -25 8 -25 -2z"/>
<path d="M3246 2367 c3 -10 9 -15 12 -12 3 3 0 11 -7 18 -10 9 -11 8 -5 -6z"/>
<path d="M2688 2313 c7 -3 16 -2 19 1 4 3 -2 6 -13 5 -11 0 -14 -3 -6 -6z"/>
<path d="M3230 2291 c-8 -6 -18 -7 -24 -4 -5 4 -7 -1 -3 -10 4 -10 0 -20 -11
-26 -9 -5 -14 -12 -11 -15 3 -3 14 2 25 12 10 10 28 16 39 15 20 -3 20 -3 0 5
-19 9 -19 9 0 20 11 6 16 11 10 12 -5 0 -17 -4 -25 -9z"/>
<path d="M3077 1453 c-4 -3 -7 -75 -7 -159 l0 -152 35 -22 c33 -21 37 -21 60
-6 24 16 25 19 25 145 l0 129 -49 36 c-52 39 -54 39 -64 29z m71 -134 c5 -58
-7 -149 -19 -149 -5 0 -9 45 -9 101 0 76 3 100 13 97 6 -3 13 -24 15 -49z"/>
<path d="M3915 1400 c-3 -6 -13 -77 -21 -158 l-15 -147 31 -28 c29 -26 46 -27
77 -2 7 5 33 240 28 255 -8 26 -92 93 -100 80z m50 -198 c-7 -57 -15 -106 -18
-108 -2 -2 -9 1 -14 8 -10 12 1 182 13 217 4 13 7 13 19 0 12 -12 12 -29 0
-117z"/>
<path d="M272 2020 c12 -19 24 -20 265 -20 251 0 253 0 241 20 -12 19 -24 20
-265 20 -251 0 -253 0 -241 -20z"/>
<path d="M5142 2028 c-7 -7 -12 -16 -12 -20 0 -4 114 -8 253 -8 241 0 253 1
265 20 12 20 10 20 -241 20 -183 0 -256 -3 -265 -12z"/>
<path d="M822 1894 c-49 -34 -10 -84 65 -84 l43 0 -37 50 c-20 28 -40 50 -43
50 -3 0 -16 -7 -28 -16z"/>
<path d="M4478 1883 c7 -3 16 -2 19 1 4 3 -2 6 -13 5 -11 0 -14 -3 -6 -6z"/>
<path d="M486 1120 c-171 -4 -230 -8 -234 -17 -3 -10 79 -13 387 -13 328 0
390 2 385 14 -10 27 -35 28 -538 16z"/>
<path d="M2470 740 c-226 -16 -300 -23 -300 -29 0 -8 177 -123 310 -202 121
-71 422 -224 462 -234 50 -13 411 174 683 354 l130 85 -85 8 c-47 3 -155 11
-240 17 l-154 9 -43 -25 -43 -25 0 26 0 26 -230 0 -230 0 0 -25 0 -25 -50 25
c-27 14 -62 24 -77 23 -15 0 -75 -4 -133 -8z"/>
</g>
</svg>
