<?xml version="1.0" standalone="no"?>
<!DOCTYPE svg PUBLIC "-//W3C//DTD SVG 20010904//EN"
 "http://www.w3.org/TR/2001/REC-SVG-20010904/DTD/svg10.dtd">
<svg version="1.0" xmlns="http://www.w3.org/2000/svg"
 width="1271.000000pt" height="679.000000pt" viewBox="0 0 1271.000000 679.000000"
 preserveAspectRatio="xMidYMid meet">

<g transform="translate(0.000000,679.000000) scale(0.100000,-0.100000)"
fill="#000000" stroke="none">
<path d="M2541 6779 c-208 -41 -428 -268 -520 -538 -131 -383 -58 -826 172
-1038 101 -93 199 -133 327 -133 382 0 700 465 676 990 -7 160 -33 267 -96
398 -121 247 -328 367 -559 321z"/>
<path d="M5300 5360 l0 -450 130 0 130 0 0 -626 0 -626 -166 -171 c-92 -95
-210 -226 -262 -292 -103 -130 -219 -255 -238 -255 -7 0 -30 24 -51 52 -196
269 -499 565 -740 722 -233 152 -482 229 -659 201 l-49 -7 93 -19 c174 -36
363 -121 525 -236 118 -84 312 -282 485 -494 158 -193 279 -318 336 -345 31
-16 35 -15 97 16 131 66 228 144 483 386 294 280 428 377 591 431 64 21 101
26 187 27 58 1 109 -2 113 -6 10 -9 -5 -47 -75 -188 -184 -375 -380 -534 -903
-732 l-39 -14 120 -31 c145 -38 310 -101 376 -145 54 -36 69 -58 38 -58 -10 0
-52 -15 -93 -34 -41 -18 -95 -39 -121 -46 l-48 -13 0 -288 0 -289 -130 0 -130
0 0 -450 0 -450 710 0 710 0 0 450 0 450 -125 0 -125 0 0 545 0 545 615 0 615
0 0 450 0 450 -485 0 c-290 0 -485 4 -485 9 0 5 -53 22 -117 36 -65 15 -124
29 -130 31 -10 3 -13 113 -13 509 l0 505 390 0 390 0 0 -200 0 -200 450 0 450
0 0 650 0 650 -1425 0 -1425 0 0 -450z"/>
<path d="M8260 5360 l0 -449 128 -3 127 -3 3 -1537 2 -1538 -410 0 -410 0 -2
188 -3 187 -446 3 -447 2 -4 -637 c-3 -351 -2 -642 0 -647 3 -5 428 -6 1025
-1 l1020 7 288 251 288 252 1 1738 0 1737 110 0 110 0 0 -1737 0 -1738 288
-252 287 -253 825 0 825 0 290 252 290 251 5 1736 5 1736 128 3 127 3 0 449 0
450 -710 0 -710 0 0 -450 0 -450 130 0 130 0 0 -1540 0 -1540 -505 0 -505 0 0
1540 0 1540 130 0 130 0 0 450 0 450 -1270 0 -1270 0 0 -450z"/>
<path d="M3202 5166 c-377 -72 -684 -305 -859 -650 -308 -611 -138 -1393 469
-2154 129 -161 499 -532 688 -689 203 -168 411 -323 645 -478 247 -164 486
-309 479 -291 -3 8 -49 52 -102 99 -608 531 -1129 1280 -1331 1911 -120 377
-130 689 -29 974 129 367 370 600 689 667 268 57 565 9 997 -161 91 -35 170
-63 175 -61 5 1 -29 45 -75 98 -217 243 -499 457 -766 581 -117 55 -295 112
-428 138 -140 28 -441 37 -552 16z"/>
<path d="M1691 5119 c-77 -15 -143 -40 -251 -95 -336 -172 -684 -529 -1043
-1069 -96 -144 -237 -376 -237 -389 0 -24 39 7 109 88 90 102 204 205 308 274
344 231 646 136 744 -235 27 -101 36 -332 20 -470 -59 -475 -298 -1038 -686
-1618 -168 -250 -374 -518 -574 -743 -40 -46 -71 -85 -68 -88 5 -5 199 145
342 265 515 431 965 913 1298 1390 181 257 366 586 476 843 l50 116 -14 54
c-51 199 -59 546 -16 733 38 164 94 310 167 437 l27 47 -28 78 c-71 203 -199
334 -369 379 -56 15 -186 17 -255 3z"/>
<path d="M3290 3877 c0 -3 26 -19 57 -37 112 -63 230 -200 369 -428 38 -62
109 -174 157 -249 48 -74 87 -136 85 -137 -2 -2 -23 -8 -48 -15 -62 -18 -132
-64 -185 -123 -25 -28 -45 -53 -45 -57 1 -3 44 -26 97 -51 120 -56 221 -122
343 -225 177 -150 382 -267 550 -315 118 -34 276 -38 394 -11 53 12 96 23 96
25 0 1 -55 0 -123 -2 -103 -4 -138 -1 -213 18 -119 29 -244 89 -391 188 -221
148 -517 309 -631 343 l-42 12 20 22 c49 52 279 130 422 144 l67 6 -127 171
c-166 222 -239 309 -358 424 -115 111 -238 196 -362 250 -92 40 -132 54 -132
47z"/>
</g>
</svg>
