<?xml version="1.0" standalone="no"?>
<!DOCTYPE svg PUBLIC "-//W3C//DTD SVG 20010904//EN"
 "http://www.w3.org/TR/2001/REC-SVG-20010904/DTD/svg10.dtd">
<svg version="1.0" xmlns="http://www.w3.org/2000/svg"
 width="400.000000pt" height="400.000000pt" viewBox="0 0 400.000000 400.000000"
 preserveAspectRatio="xMidYMid meet">

<g transform="translate(0.000000,400.000000) scale(0.100000,-0.100000)"
fill="#000000" stroke="none">
<path d="M1848 3976 c-396 -70 -648 -321 -728 -725 -59 -301 16 -697 192
-1006 53 -92 142 -220 186 -265 13 -14 35 -49 49 -79 22 -46 25 -63 21 -132
-4 -64 -10 -87 -34 -126 -37 -60 -68 -80 -201 -133 -249 -99 -533 -249 -698
-369 -82 -60 -206 -179 -246 -237 -61 -89 -73 -136 -73 -289 -1 -137 0 -141
29 -193 152 -276 703 -412 1664 -412 799 0 1310 93 1541 279 62 49 84 76 121
144 l31 59 -4 141 c-4 136 -5 145 -36 204 -123 239 -496 487 -1020 678 -57 21
-117 49 -132 62 -46 38 -73 124 -67 208 8 96 22 132 92 220 174 222 277 430
342 693 25 98 27 124 27 312 1 184 -1 215 -23 300 -74 292 -254 506 -513 609
-147 59 -371 83 -520 57z"/>
</g>
</svg>
